<svg width="20" height="25" viewBox="0 0 20 25" fill="none" xmlns="http://www.w3.org/2000/svg"><path d="M0.842247 12.7248C0.842247 13.3824 1.37534 13.9154 2.03294 13.9154C2.69054 13.9154 3.22363 13.3824 3.22363 12.7248C3.22363 12.0671 2.69054 11.5341 2.03294 11.5341C1.37534 11.5341 0.842247 12.0671 0.842247 12.7248Z" fill="white" fill-opacity="0.7"></path> <path d="M7.98689 12.7246C7.98693 11.1836 7.38939 9.70251 6.31992 8.59293C6.10045 8.36556 5.79964 8.23469 5.48367 8.22911C5.1677 8.22353 4.86246 8.34369 4.63509 8.56317C4.40772 8.78264 4.27685 9.08345 4.27127 9.39942C4.26569 9.71538 4.38585 10.0206 4.60532 10.248C5.22449 10.9242 5.56792 11.8078 5.56792 12.7246C5.56792 13.6415 5.22449 14.5251 4.60532 15.2013C4.38585 15.4286 4.26569 15.7339 4.27127 16.0499C4.27685 16.3658 4.40772 16.6666 4.63509 16.8861C4.86246 17.1056 5.1677 17.2257 5.48367 17.2202C5.79964 17.2146 6.10045 17.0837 6.31992 16.8563C7.38939 15.7468 7.98693 14.2657 7.98689 12.7246ZM13.9404 12.7246C13.9394 11.2865 13.649 9.86332 13.0865 8.53981C12.5239 7.21629 11.7007 6.01954 10.6659 5.02086C10.551 4.91218 10.4158 4.82721 10.268 4.77079C10.1203 4.71437 9.96285 4.68761 9.80474 4.69203C9.64663 4.69645 9.49094 4.73197 9.34656 4.79657C9.20218 4.86116 9.07193 4.95356 8.96326 5.06848C8.74378 5.30059 8.6255 5.61038 8.63443 5.92969C8.63886 6.0878 8.67438 6.24349 8.73897 6.38787C8.80356 6.53225 8.89596 6.6625 9.01089 6.77117C9.81755 7.54868 10.4592 8.48084 10.8974 9.51193C11.3357 10.543 11.5616 11.6519 11.5616 12.7723C11.5616 13.8926 11.3357 15.0015 10.8974 16.0326C10.4592 17.0637 9.81755 17.9958 9.01089 18.7734C8.89838 18.8836 8.80887 19.0151 8.74756 19.1603C8.68624 19.3054 8.65433 19.4612 8.65368 19.6187C8.65456 19.8514 8.72361 20.0788 8.85228 20.2726C8.98095 20.4665 9.1636 20.6184 9.37767 20.7096C9.59174 20.8008 9.82784 20.8273 10.0568 20.7858C10.2858 20.7443 10.4975 20.6366 10.6659 20.476C11.7065 19.4718 12.5331 18.2673 13.0958 16.9352C13.6585 15.603 13.9458 14.1708 13.9404 12.7246Z" fill="white" fill-opacity="0.7"></path> <path d="M15.2142 24.2983C18.2117 21.191 19.8867 17.0421 19.8867 12.7247C19.8867 8.40736 18.2117 4.25839 15.2142 1.15119C14.9908 0.950241 14.6996 0.841214 14.3991 0.845975C14.0987 0.850735 13.8111 0.968931 13.5941 1.17685C13.3772 1.38477 13.2469 1.66704 13.2293 1.96703C13.2118 2.26703 13.3083 2.56256 13.4996 2.79434C16.0749 5.45863 17.5145 9.01922 17.5145 12.7247C17.5145 16.4302 16.0749 19.9908 13.4996 22.6551C13.2868 22.8758 13.1674 23.1701 13.1662 23.4767C13.1668 23.6371 13.1998 23.7957 13.2633 23.943C13.3267 24.0903 13.4192 24.2233 13.5353 24.334C13.7631 24.5511 14.0675 24.6692 14.3821 24.6625C14.6967 24.6558 14.9959 24.5248 15.2142 24.2983Z" fill="white" fill-opacity="0.7"></path></svg>